<svg width="53" height="52" viewBox="0 0 53 52" fill="none" xmlns="http://www.w3.org/2000/svg">
<path d="M20.0851 43.2638H32.9962C35.7874 43.2638 37.6482 41.4357 37.6482 38.7262V11.9572C37.6482 9.24765 35.7874 7.43585 32.9962 7.43585H20.0851C17.245 7.43585 15.3516 9.24765 15.3516 11.9572V38.7262C15.3516 41.4357 17.245 43.2638 20.0851 43.2638ZM20.6401 39.983C19.3506 39.983 18.6161 39.2811 18.6161 38.0406V12.6427C18.6161 11.4022 19.3506 10.7004 20.6401 10.7004H32.3597C33.6491 10.7004 34.3836 11.4186 34.3836 12.6591V38.0406C34.3836 39.2811 33.6491 39.983 32.3597 39.983H20.6401ZM21.4235 15.793H22.9905C23.3659 15.793 23.6271 15.5482 23.6271 15.1891V13.5895C23.6271 13.2304 23.3659 12.9855 22.9905 12.9855H21.4235C21.0645 12.9855 20.8196 13.2304 20.8196 13.5895V15.1891C20.8196 15.5482 21.0645 15.793 21.4235 15.793ZM25.7001 15.793H27.2507C27.6261 15.793 27.9036 15.5482 27.9036 15.1891V13.5895C27.9036 13.2304 27.6261 12.9855 27.2507 12.9855H25.7001C25.341 12.9855 25.0961 13.2304 25.0961 13.5895V15.1891C25.0961 15.5482 25.341 15.793 25.7001 15.793ZM29.9602 15.793H31.5109C31.9026 15.793 32.1638 15.5482 32.1638 15.1891V13.5895C32.1638 13.2304 31.9026 12.9855 31.5109 12.9855H29.9602C29.6011 12.9855 29.3563 13.2304 29.3563 13.5895V15.1891C29.3563 15.5482 29.6011 15.793 29.9602 15.793ZM21.4235 20.2654H22.9905C23.3659 20.2654 23.6271 20.0205 23.6271 19.6614V18.0618C23.6271 17.7027 23.3659 17.4579 22.9905 17.4579H21.4235C21.0645 17.4579 20.8196 17.7027 20.8196 18.0618V19.6614C20.8196 20.0205 21.0645 20.2654 21.4235 20.2654ZM25.7001 20.2654H27.2507C27.6261 20.2654 27.9036 20.0205 27.9036 19.6614V18.0618C27.9036 17.7027 27.6261 17.4579 27.2507 17.4579H25.7001C25.341 17.4579 25.0961 17.7027 25.0961 18.0618V19.6614C25.0961 20.0205 25.341 20.2654 25.7001 20.2654ZM29.9602 20.2654H31.5109C31.9026 20.2654 32.1638 20.0205 32.1638 19.6614V18.0618C32.1638 17.7027 31.9026 17.4579 31.5109 17.4579H29.9602C29.6011 17.4579 29.3563 17.7027 29.3563 18.0618V19.6614C29.3563 20.0205 29.6011 20.2654 29.9602 20.2654ZM21.4235 24.7541H22.9905C23.3659 24.7541 23.6271 24.4929 23.6271 24.1338V22.5342C23.6271 22.1751 23.3659 21.9303 22.9905 21.9303H21.4235C21.0645 21.9303 20.8196 22.1751 20.8196 22.5342V24.1338C20.8196 24.4929 21.0645 24.7541 21.4235 24.7541ZM25.7001 24.7541H27.2507C27.6261 24.7541 27.9036 24.4929 27.9036 24.1338V22.5342C27.9036 22.1751 27.6261 21.9303 27.2507 21.9303H25.7001C25.341 21.9303 25.0961 22.1751 25.0961 22.5342V24.1338C25.0961 24.4929 25.341 24.7541 25.7001 24.7541ZM21.4235 37.7795H22.9905C23.3659 37.7795 23.6271 37.5346 23.6271 37.1919V35.5759C23.6271 35.2168 23.3659 34.972 22.9905 34.972H21.4235C21.0645 34.972 20.8196 35.2168 20.8196 35.5759V37.1919C20.8196 37.5346 21.0645 37.7795 21.4235 37.7795ZM25.7001 37.7795H27.2507C27.6261 37.7795 27.9036 37.5346 27.9036 37.1919V35.5759C27.9036 35.2168 27.6261 34.972 27.2507 34.972H25.7001C25.341 34.972 25.0961 35.2168 25.0961 35.5759V37.1919C25.0961 37.5346 25.341 37.7795 25.7001 37.7795ZM29.9602 37.7795H31.5109C31.9026 37.7795 32.1638 37.5346 32.1638 37.1919V35.5759C32.1638 35.2168 31.9026 34.972 31.5109 34.972H29.9602C29.6011 34.972 29.3563 35.2168 29.3563 35.5759V37.1919C29.3563 37.5346 29.6011 37.7795 29.9602 37.7795Z" fill="#202020"/>
</svg>
