<svg width="53" height="52" viewBox="0 0 53 52" fill="none" xmlns="http://www.w3.org/2000/svg">
<path d="M5.101 39.0526H46.2012C48.47 39.0526 49.9717 37.5999 49.9717 35.3637V19.4655C49.9717 17.2293 48.47 15.7766 46.2012 15.7766H45.6299V15.6134C45.6299 13.0508 44.2261 11.696 41.6798 11.696H12.4951C10.0467 11.696 8.54506 13.0508 8.54506 15.6134V34.8577H5.101C3.95843 34.8577 3.01172 35.8044 3.01172 36.9633C3.01172 38.1059 3.95843 39.0526 5.101 39.0526ZM34.9223 19.4655V34.8577H11.7932V16.4785C11.7932 15.4338 12.2992 14.9442 13.3276 14.9442H40.8474C41.5982 14.9442 42.0716 15.2217 42.2674 15.7766H38.7581C36.4566 15.7766 34.9223 17.2293 34.9223 19.4655ZM37.5176 19.8573C37.5176 18.9269 38.1052 18.3719 39.0845 18.3719H39.3131V19.0248C39.3131 19.5961 39.6885 19.9715 40.2434 19.9715H44.6669C45.2381 19.9715 45.5972 19.5961 45.5972 19.0248V18.3719H45.8094C46.7888 18.3719 47.3764 18.9432 47.3764 19.8736V34.9719C47.3764 35.9023 46.7888 36.4573 45.8094 36.4573H39.0845C38.1052 36.4573 37.5176 35.9023 37.5176 34.9719V19.8573ZM39.966 35.38H44.9443C45.3198 35.38 45.5972 35.1188 45.5972 34.7434C45.5972 34.3517 45.3198 34.0905 44.9443 34.0905H39.966C39.5905 34.0905 39.3131 34.3517 39.3131 34.7434C39.3131 35.1188 39.5905 35.38 39.966 35.38Z" fill="#202020"/>
</svg>
