<svg width="53" height="52" viewBox="0 0 53 52" fill="none" xmlns="http://www.w3.org/2000/svg">
<path d="M23.7741 35.3474C26.3693 35.3474 28.8014 34.5639 30.8254 33.2255L37.9747 40.3911C38.448 40.8481 39.052 41.0766 39.7049 41.0766C41.0596 41.0766 42.0553 40.0156 42.0553 38.6772C42.0553 38.0569 41.8431 37.453 41.3861 36.996L34.2858 29.863C35.7548 27.7737 36.6199 25.2437 36.6199 22.5015C36.6199 15.4339 30.8417 9.6557 23.7741 9.6557C16.7227 9.6557 10.9282 15.4339 10.9282 22.5015C10.9282 29.5692 16.7064 35.3474 23.7741 35.3474ZM23.7741 31.9197C18.5998 31.9197 14.356 27.6758 14.356 22.5015C14.356 17.3273 18.5998 13.0834 23.7741 13.0834C28.9483 13.0834 33.1922 17.3273 33.1922 22.5015C33.1922 27.6758 28.9483 31.9197 23.7741 31.9197Z" fill="#202020"/>
</svg>
