<svg width="53" height="52" viewBox="0 0 53 52" fill="none" xmlns="http://www.w3.org/2000/svg">
<path d="M15.2539 40.6359H37.7301C41.272 40.6359 43.1165 38.8077 43.1165 35.3147V15.4502C43.1165 11.9572 41.272 10.129 37.7301 10.129H15.2539C11.7282 10.129 9.88379 11.9408 9.88379 15.4502V35.3147C9.88379 38.8077 11.7282 40.6359 15.2539 40.6359ZM15.2376 37.3877C13.8828 37.3877 13.132 36.6858 13.132 35.2494V20.2327C13.132 18.7963 13.8828 18.0944 15.2376 18.0944H37.7464C39.1011 18.0944 39.852 18.7963 39.852 20.2327V35.2494C39.852 36.6858 39.1011 37.3877 37.7464 37.3877H15.2376Z" fill="#202020"/>
</svg>
