<svg width="53" height="52" viewBox="0 0 53 52" fill="none" xmlns="http://www.w3.org/2000/svg">
<path d="M7.27211 24.803H22.2725C24.9657 24.803 26.3205 23.4645 26.3205 20.7876V13.9975C26.3205 11.3206 24.9657 9.98212 22.2725 9.98212H7.27211C4.57889 9.98212 3.22412 11.3206 3.22412 13.9975V20.7876C3.22412 23.4645 4.57889 24.803 7.27211 24.803ZM35.2326 38.5302H45.7117C48.4049 38.5302 49.7597 37.2081 49.7597 34.5149V16.4458C49.7597 13.7689 48.4049 12.4468 45.7117 12.4468H35.2326C32.5557 12.4468 31.201 13.7689 31.201 16.4458V34.5149C31.201 37.2081 32.5557 38.5302 35.2326 38.5302ZM7.66385 21.7343C6.76611 21.7343 6.29276 21.261 6.29276 20.3306V14.4545C6.29276 13.5078 6.76611 13.0508 7.66385 13.0508H21.8645C22.7785 13.0508 23.2519 13.5078 23.2519 14.4545V20.3306C23.2519 21.261 22.7785 21.7343 21.8645 21.7343H7.66385ZM35.6244 35.4779C34.743 35.4779 34.2533 35.0046 34.2533 34.0742V16.9029C34.2533 15.9562 34.743 15.4991 35.6244 15.4991H45.3036C46.2177 15.4991 46.6911 15.9562 46.6911 16.9029V34.0742C46.6911 35.0046 46.2177 35.4779 45.3036 35.4779H35.6244ZM11.3691 40.6359H24.1007C26.7776 40.6359 28.1486 39.3137 28.1486 36.6205V32.0176C28.1486 29.3407 26.7776 28.0185 24.1007 28.0185H11.3691C8.67585 28.0185 7.32108 29.3407 7.32108 32.0176V36.6205C7.32108 39.3137 8.67585 40.6359 11.3691 40.6359ZM11.7608 37.5835C10.8631 37.5835 10.3897 37.1102 10.3897 36.1798V32.4746C10.3897 31.5442 10.8631 31.0872 11.7608 31.0872H23.6926C24.5903 31.0872 25.08 31.5442 25.08 32.4746V36.1798C25.08 37.1102 24.5903 37.5835 23.6926 37.5835H11.7608Z" fill="#202020"/>
</svg>
