<svg width="53" height="52" viewBox="0 0 53 52" fill="none" xmlns="http://www.w3.org/2000/svg">
<path d="M22.158 16.6907C22.3865 16.6907 22.5171 16.5275 22.5661 16.3153C23.1047 13.6058 23.0721 13.5405 25.8959 12.9855C26.1407 12.9365 26.2876 12.806 26.2876 12.5775C26.2876 12.3489 26.1407 12.2184 25.9122 12.1694C23.0557 11.5818 23.0721 11.5165 22.5661 8.82327C22.5334 8.61108 22.3865 8.46417 22.158 8.46417C21.9295 8.46417 21.7989 8.61108 21.7663 8.82327C21.2113 11.5491 21.2603 11.6471 18.4201 12.1694C18.1916 12.202 18.0447 12.3489 18.0447 12.5775C18.0447 12.7896 18.1916 12.9365 18.4201 12.9855C21.2603 13.5568 21.2439 13.6221 21.7663 16.3153C21.7989 16.5275 21.9295 16.6907 22.158 16.6907ZM36.1464 22.5016C36.4076 22.5016 36.5708 22.3057 36.6198 22.0609C37.2074 18.8943 37.1747 18.7311 40.5045 18.1598C40.782 18.1108 40.9616 17.9476 40.9616 17.6864C40.9616 17.4252 40.782 17.262 40.5209 17.2131C37.1747 16.6091 37.1258 16.4622 36.6198 13.312C36.5708 13.0508 36.4076 12.8713 36.1464 12.8713C35.8853 12.8713 35.7057 13.0508 35.6731 13.312C35.1018 16.4949 35.1181 16.6907 31.7556 17.2131C31.5108 17.2457 31.3149 17.4252 31.3149 17.6864C31.3313 17.9476 31.4945 18.1108 31.7556 18.1598C35.1181 18.7474 35.1507 18.9106 35.6731 22.0609C35.7057 22.3057 35.8853 22.5016 36.1464 22.5016ZM13.1643 27.3983C13.4254 27.3983 13.605 27.2188 13.6376 26.9576C14.1599 23.791 14.2089 23.6278 17.5387 23.0565C17.7999 23.0076 17.9794 22.8443 17.9794 22.5832C17.9794 22.322 17.7999 22.1588 17.555 22.1098C14.1926 21.5059 14.1926 21.359 13.6376 18.2087C13.5887 17.9476 13.4254 17.768 13.1643 17.768C12.9031 17.768 12.7399 17.9476 12.6909 18.2087C12.1686 21.3916 12.136 21.5549 8.78983 22.1098C8.52867 22.1588 8.34912 22.322 8.34912 22.5832C8.34912 22.8443 8.52867 23.0076 8.77351 23.0565C12.136 23.6441 12.136 23.8237 12.6909 26.9739C12.7399 27.2188 12.9031 27.3983 13.1643 27.3983ZM41.1085 41.4031C41.9083 42.2192 43.2794 42.2029 44.0628 41.4031C44.8627 40.5706 44.8463 39.2648 44.0628 38.4487L28.5564 22.8607C27.7566 22.0609 26.3855 22.0609 25.602 22.8607C24.8022 23.6931 24.8186 25.0152 25.602 25.815L41.1085 41.4031ZM31.9026 30.0915L26.9895 25.1785C26.663 24.8357 26.5488 24.4439 26.8752 24.1175C27.169 23.8237 27.5771 23.9053 27.9362 24.2481L32.8329 29.1612L31.9026 30.0915ZM21.0317 41.8111C21.3745 41.8111 21.6193 41.5826 21.6683 41.2072C22.1906 36.8001 22.4028 36.6695 26.8915 35.9677C27.2996 35.9024 27.5444 35.6902 27.5444 35.3311C27.5444 34.9883 27.2996 34.7598 26.9731 34.6945C22.4192 33.8131 22.1906 33.8457 21.6683 29.455C21.6193 29.0795 21.3745 28.851 21.0317 28.851C20.689 28.851 20.4441 29.0795 20.3952 29.4386C19.8402 33.911 19.677 34.0742 15.1067 34.6945C14.7802 34.7271 14.519 34.9883 14.519 35.3311C14.519 35.6739 14.7639 35.9024 15.0903 35.9677C19.6933 36.8491 19.8239 36.8491 20.3952 41.2398C20.4441 41.5826 20.689 41.8111 21.0317 41.8111Z" fill="#202020"/>
</svg>
